<svg width="31" height="24" viewBox="0 0 31 24" fill="none" xmlns="http://www.w3.org/2000/svg">
    <path d="M6.72292 19.9557C6.72292 19.6238 6.992 19.3547 7.32394 19.3547H13.6805C14.0124 19.3547 14.2815 19.6238 14.2815 19.9557C14.2815 20.2876 14.0124 20.5567 13.6805 20.5567H7.32394C6.992 20.5567 6.72292 20.2876 6.72292 19.9557Z" fill="#3F3D43"/>
    <path d="M5.78646 17.939C5.78646 17.6071 6.05554 17.338 6.38748 17.338H14.2313C14.5632 17.338 14.8323 17.6071 14.8323 17.939C14.8323 18.271 14.5632 18.5401 14.2313 18.5401H6.38748C6.05554 18.5401 5.78646 18.271 5.78646 17.939Z" fill="#3F3D43"/>
    <path d="M4.97083 15.9219C4.97083 15.5899 5.23992 15.3208 5.57185 15.3208H15.127C15.459 15.3208 15.728 15.5899 15.728 15.9219C15.728 16.2538 15.459 16.5229 15.127 16.5229H5.57185C5.23992 16.5229 4.97083 16.2538 4.97083 15.9219Z" fill="#3F3D43"/>
    <path d="M3.60625 13.9047C3.60625 13.5727 3.87534 13.3036 4.20727 13.3036H19.1818C19.5137 13.3036 19.7828 13.5727 19.7828 13.9047C19.7828 14.2366 19.5137 14.5057 19.1818 14.5057H4.20727C3.87534 14.5057 3.60625 14.2366 3.60625 13.9047Z" fill="#3F3D43"/>
    <path d="M4.97083 11.888C4.97083 11.5561 5.23992 11.287 5.57185 11.287H16.3698C16.7017 11.287 16.9708 11.5561 16.9708 11.888C16.9708 12.2199 16.7017 12.489 16.3698 12.489H5.57185C5.23992 12.489 4.97083 12.2199 4.97083 11.888Z" fill="#3F3D43"/>
    <path d="M5.78646 9.87081C5.78646 9.53888 6.05554 9.26979 6.38748 9.26979H17.2058C17.5377 9.26979 17.8068 9.53888 17.8068 9.87081C17.8068 10.2027 17.5377 10.4718 17.2058 10.4718H6.38748C6.05554 10.4718 5.78646 10.2027 5.78646 9.87081Z" fill="#3F3D43"/>
    <path d="M2.70937 19.9557C2.70937 19.6238 2.97846 19.3547 3.31039 19.3547H4.81803C5.14997 19.3547 5.41905 19.6238 5.41905 19.9557C5.41905 20.2876 5.14997 20.5567 4.81803 20.5567H3.31039C2.97846 20.5567 2.70937 20.2876 2.70937 19.9557Z" fill="url(#paint0_linear_35_46)"/>
    <path d="M3.38229 7.87446C3.38229 7.54252 3.65138 7.27344 3.98331 7.27344H5.49095C5.82288 7.27344 6.09197 7.54252 6.09197 7.87446C6.09197 8.20639 5.82288 8.47548 5.49095 8.47548H3.98331C3.65138 8.47548 3.38229 8.20639 3.38229 7.87446Z" fill="url(#paint1_linear_35_46)"/>
    <path d="M0 13.9047C0 13.5727 0.269085 13.3036 0.601019 13.3036H2.10866C2.44059 13.3036 2.70968 13.5727 2.70968 13.9047C2.70968 14.2366 2.44059 14.5057 2.10866 14.5057H0.601018C0.269085 14.5057 0 14.2366 0 13.9047Z" fill="url(#paint2_linear_35_46)"/>
    <path d="M6.72292 7.85414C6.72292 7.52221 6.992 7.25313 7.32394 7.25313H19.1813C19.5133 7.25313 19.7823 7.52221 19.7823 7.85414C19.7823 8.18608 19.5133 8.45516 19.1813 8.45516H7.32394C6.992 8.45516 6.72292 8.18608 6.72292 7.85414Z" fill="#3F3D43"/>
    <path d="M14.7021 8.46315C14.7021 8.46315 15.1724 6.89222 16.4574 6.01687C17.7424 5.14152 19.0358 5.21727 19.4642 5.21727H27.5185C27.3527 6.35075 27.0833 7.1751 26.7102 7.69032C26.3371 8.20554 25.812 8.46315 25.1349 8.46315H18.5823L17.4281 11.7351H24.2472C24.0814 12.8857 23.8119 13.7186 23.4388 14.2339C23.0657 14.7319 22.5407 14.9809 21.8636 14.9809H16.5989L13.813 22.8591C13.813 22.8591 11.9692 22.0747 10.5125 20.5569L14.7021 8.46315Z" fill="white"/>
    <defs>
        <linearGradient id="paint0_linear_35_46" x1="0" y1="24" x2="30.9271" y2="24" gradientUnits="userSpaceOnUse">
            <stop stop-color="#3F3D43" stop-opacity="0"/>
            <stop offset="1" stop-color="#3F3D43"/>
        </linearGradient>
        <linearGradient id="paint1_linear_35_46" x1="0" y1="24" x2="30.9271" y2="24" gradientUnits="userSpaceOnUse">
            <stop stop-color="#3F3D43" stop-opacity="0.1"/>
            <stop offset="1" stop-color="#3F3D43"/>
        </linearGradient>
        <linearGradient id="paint2_linear_35_46" x1="0" y1="24" x2="30.9271" y2="24" gradientUnits="userSpaceOnUse">
            <stop offset="0.42" stop-color="#3F3D43" stop-opacity="0"/>
            <stop offset="0.69" stop-color="#3F3D43" stop-opacity="0.61165"/>
            <stop offset="1" stop-color="#3F3D43"/>
        </linearGradient>
    </defs>
</svg>
